<?xml version="1.0" encoding="UTF-8" standalone="no"?>
<svg width="60px" height="60px" viewBox="0 0 60 60" version="1.1" xmlns="http://www.w3.org/2000/svg" xmlns:xlink="http://www.w3.org/1999/xlink" xmlns:sketch="http://www.bohemiancoding.com/sketch/ns">
    <!-- Generator: Sketch 3.0.1 (7597) - http://www.bohemiancoding.com/sketch -->
    <title>flattr</title>
    <description>Created with Sketch.</description>
    <defs></defs>
    <g id="black" stroke="none" stroke-width="1" fill="none" fill-rule="evenodd" sketch:type="MSPage">
        <g id="flattr" sketch:type="MSLayerGroup">
            <path d="M30,60 C46.5685433,60 60,46.5685433 60,30 C60,13.4314567 46.5685433,0 30,0 C13.4314567,0 0,13.4314567 0,30 C0,46.5685433 13.4314567,60 30,60 Z" fill="#000000" sketch:type="MSShapeGroup"></path>
            <path d="M39.3406335,33.5040754 C39.3406335,36.4368639 38.8542772,39.0783682 31.1430281,39.3013343 L31.1594713,34.1342308 C31.1594713,34.0935577 31.1534134,34.02 31.1430285,33.9827885 C31.0919692,33.8019231 30.9284064,33.6686538 30.7336888,33.6686538 C30.6237815,33.6686538 30.5216629,33.7257692 30.4152173,33.8304808 L19.2427528,44.9982692 L26.7424102,45 L35.0598817,45 C41.6404719,45 45,41.2096154 45,34.1325 L45,29.1885577 L45,19.2850962 L39.3406335,25.4053205 L39.3406335,33.5040754 Z M20.6597992,26.4959246 C20.6597992,23.5631361 21.1461555,20.9216318 28.8574046,20.6986657 L28.8409614,25.8657692 C28.8409614,25.9064423 28.8470193,25.98 28.8574042,26.0172115 C28.9084635,26.1980769 29.0720263,26.3313462 29.2667439,26.3313462 C29.3766512,26.3313462 29.4787698,26.2742308 29.5852154,26.1695192 L40.7576799,15.0017308 L33.2580225,15 L24.940551,15 C18.3599608,15 15.0004327,18.7903846 15.0004327,25.8675 L15.0004327,30.8114423 L15.0004327,40.7149038 L20.6597992,34.5946795 L20.6597992,26.4959246 Z" fill="#FFFFFF" sketch:type="MSShapeGroup"></path>
        </g>
    </g>
</svg>