<?xml version="1.0" encoding="UTF-8" standalone="no"?>
<svg width="60px" height="60px" viewBox="0 0 60 60" version="1.1" xmlns="http://www.w3.org/2000/svg" xmlns:xlink="http://www.w3.org/1999/xlink" xmlns:sketch="http://www.bohemiancoding.com/sketch/ns">
    <!-- Generator: Sketch 3.0.1 (7597) - http://www.bohemiancoding.com/sketch -->
    <title>paypal</title>
    <description>Created with Sketch.</description>
    <defs></defs>
    <g id="black" stroke="none" stroke-width="1" fill="none" fill-rule="evenodd" sketch:type="MSPage">
        <g id="paypal" sketch:type="MSLayerGroup">
            <path d="M30,60 C46.5685433,60 60,46.5685433 60,30 C60,13.4314567 46.5685433,0 30,0 C13.4314567,0 0,13.4314567 0,30 C0,46.5685433 13.4314567,60 30,60 Z" fill="#000000" sketch:type="MSShapeGroup"></path>
            <path d="M44.6345892,21.9230769 C44.60164,25.556406 43.0000232,28.5315784 39.860539,30.7546703 C36.7848043,32.9328722 32.4820707,34.0399291 27.0712418,34.0447634 L25.8528382,34.0447634 C25.4366757,34.0447634 24.9603451,34.4073366 24.8722419,34.791319 L23.4017055,40.9005053 C23.0894045,42.2292499 21.7327577,43.2734608 20.3145102,43.2734608 L16.2331092,43.2734608 L16.1958623,43.4295399 C15.9888555,44.2893565 16.5668987,45 17.4866107,45 L21.7463672,45 C22.6675117,45 23.5800609,44.3073125 23.7870677,43.4295399 L25.2554552,37.3307128 C25.4510015,36.4778025 26.3614017,35.7719932 27.2846952,35.7719932 L28.5023824,35.7719932 C33.7119348,35.7671589 37.7532238,34.7395228 40.6570497,32.6828693 C43.5565779,30.6296688 45.006342,27.9093337 44.9998954,24.5446541 C45.0041931,23.5584549 44.8759778,22.6917322 44.6345892,21.9230769 Z M32.7826226,26.395019 C31.5584655,27.25878 29.8609038,27.6923077 27.6571476,27.6923077 L26.6611537,27.6923077 C25.7833401,27.6923077 25.229327,27.020274 25.423334,26.1960444 L26.646125,21.1136245 C26.8319345,20.2953246 27.7083819,19.6153846 28.5861955,19.6232909 L29.9148705,19.6153846 C31.4682932,19.6153846 32.6487304,19.8723387 33.4452523,20.3816348 C34.2301611,20.8777539 34.6291052,21.6611344 34.6147596,22.7153049 C34.6379858,24.3011728 34.013611,25.5292815 32.7826226,26.395019 Z M43.0337703,18.0467491 C42.5044347,17.0307715 41.7107895,16.2057301 40.6979606,15.5828978 C39.6471685,14.9445651 38.425184,14.5056233 37.0004904,14.2400037 C35.5672014,13.9877707 33.8932402,13.8637679 31.9721603,13.8461538 L23.0801815,13.8524949 C22.1561721,13.8637679 21.2507862,14.5760795 21.0373329,15.4504402 L15.0420161,41.090135 C14.8350094,41.967314 15.4130524,42.6923077 16.3327641,42.6923077 L20.592519,42.6923077 C21.5136633,42.6923077 22.4262121,41.9856326 22.6332188,41.090135 L24.1016059,34.8681531 C24.297152,33.9980197 25.207552,33.2779579 26.1308451,33.2779579 L27.3485319,33.2779579 C32.5580825,33.273026 36.5993701,32.2246386 39.5031949,30.1264547 C42.4027221,28.0317936 43.8524856,25.2565261 43.8460391,21.8239029 C43.8524856,20.3154368 43.5874597,19.0542719 43.0337703,18.0467491" fill="#FFFFFF" sketch:type="MSShapeGroup"></path>
        </g>
    </g>
</svg>