<?xml version="1.0" encoding="UTF-8" standalone="no"?>
<svg width="60px" height="60px" viewBox="0 0 60 60" version="1.1" xmlns="http://www.w3.org/2000/svg" xmlns:xlink="http://www.w3.org/1999/xlink" xmlns:sketch="http://www.bohemiancoding.com/sketch/ns">
    <!-- Generator: Sketch 3.0.1 (7597) - http://www.bohemiancoding.com/sketch -->
    <title>stackoverflow</title>
    <description>Created with Sketch.</description>
    <defs></defs>
    <g id="black" stroke="none" stroke-width="1" fill="none" fill-rule="evenodd" sketch:type="MSPage">
        <g id="stackoverflow" sketch:type="MSLayerGroup">
            <path d="M30,60 C46.5685433,60 60,46.5685433 60,30 C60,13.4314567 46.5685433,0 30,0 C13.4314567,0 0,13.4314567 0,30 C0,46.5685433 13.4314567,60 30,60 Z" fill="#000000" sketch:type="MSShapeGroup"></path>
            <path d="M36.9342176,32.0127583 L21.5523817,28.8461538 L20.7692308,32.1298433 L38.4467129,35.7692308 L39.0967455,33.0468431 L39.9639763,33.4615385 L41.5384615,29.9972293 L24.6514083,21.9230769 L23.0769231,25.3864307 L36.9342176,32.0127583 L36.9342176,32.0127583 Z M43.8461538,33.4615385 L43.8461538,43.8461538 L16.1538462,43.8461538 L16.1538462,33.4615385 L19.6153846,33.4615385 L19.6153846,40.3846154 L40.3846154,40.3846154 L40.3846154,33.4615385 L43.8461538,33.4615385 Z M20.7692308,35.7692308 L39.2307692,35.7692308 L39.2307692,39.2307692 L20.7692308,39.2307692 L20.7692308,35.7692308 Z M43.8461538,26.9628409 L41.5426223,30 L26.5384615,18.3489448 L28.2046449,16.1538462 L29.9247286,16.1538462 L43.8461538,26.9628409 Z" fill="#FFFFFF" sketch:type="MSShapeGroup"></path>
        </g>
    </g>
</svg>