<?xml version="1.0" encoding="UTF-8" standalone="no"?>
<svg width="60px" height="60px" viewBox="0 0 60 60" version="1.1" xmlns="http://www.w3.org/2000/svg" xmlns:xlink="http://www.w3.org/1999/xlink" xmlns:sketch="http://www.bohemiancoding.com/sketch/ns">
    <!-- Generator: Sketch 3.0.3 (7891) - http://www.bohemiancoding.com/sketch -->
    <title>youtube</title>
    <desc>Created with Sketch.</desc>
    <defs></defs>
    <g id="black" stroke="none" stroke-width="1" fill="none" fill-rule="evenodd" sketch:type="MSPage">
        <g id="youtube" sketch:type="MSLayerGroup">
            <path d="M30,60 C46.5685433,60 60,46.5685433 60,30 C60,13.4314567 46.5685433,0 30,0 C13.4314567,0 0,13.4314567 0,30 C0,46.5685433 13.4314567,60 30,60 Z" fill="#000000" sketch:type="MSShapeGroup"></path>
            <path d="M48.7915918,22.761609 C48.7915918,22.761609 48.4166292,20.1189748 47.2666018,18.9548863 C45.8089347,17.4277659 44.1740125,17.4205223 43.4245134,17.3310426 C38.0582872,16.9428711 30.0085219,16.9428711 30.0085219,16.9428711 L29.9914781,16.9428711 C29.9914781,16.9428711 21.9421389,16.9428711 16.5754866,17.3310426 C15.8259875,17.4205223 14.1919175,17.4277659 12.7333982,18.9548863 C11.5833708,20.1189748 11.2092604,22.761609 11.2092604,22.761609 C11.2092604,22.761609 10.8257759,25.8648506 10.8257759,28.9680923 L10.8257759,31.8778873 C10.8257759,34.9807028 11.2092604,38.0839445 11.2092604,38.0839445 C11.2092604,38.0839445 11.5833708,40.7265786 12.7333982,41.8906671 C14.1919175,43.4182136 16.1080616,43.3692128 16.9615276,43.5294241 C20.0298296,43.823855 30,43.9150391 30,43.9150391 C30,43.9150391 38.0582872,43.9026823 43.4245134,43.5149369 C44.1740125,43.4254572 45.8089347,43.4182136 47.2666018,41.8906671 C48.4166292,40.7265786 48.7915918,38.0839445 48.7915918,38.0839445 C48.7915918,38.0839445 49.1742241,34.9807028 49.1742241,31.8778873 L49.1742241,28.9680923 C49.1742241,25.8648506 48.7915918,22.761609 48.7915918,22.761609 Z M26.0411619,35.4029619 L26.0394575,24.6283262 L36.4012082,30.0341791 L26.0411619,35.4029619 Z" id="Fill-195" fill="#FFFFFF" sketch:type="MSShapeGroup"></path>
        </g>
    </g>
</svg>